<svg xmlns="http://www.w3.org/2000/svg" viewBox="0 0 500 500"><defs><style>.cls-1{fill:#f3e100;}.cls-2{fill:#efa500;}.cls-3{fill:#22475c;}.cls-4{fill:#0097a7;}.cls-5{fill:#3b474e;}.cls-6{fill:#667a84;}.cls-7{fill:#eaedef;}.cls-8{fill:#ffc9b9;}.cls-9{fill:#fda98f;}.cls-10{fill:#375a64;}.cls-11{fill:#1a2e35;}.cls-12{fill:#263238;}.cls-13{fill:#303e44;}.cls-14{fill:#37474f;}.cls-15,.cls-17{fill:#cfd8dc;}.cls-16{fill:#fff;}.cls-17{opacity:0.63;}.cls-18{fill:#7cb342;}.cls-19{fill:none;stroke:#f2e0be;stroke-miterlimit:10;}.cls-20{fill:#f2e0be;}.cls-21{fill:#472c1f;}.cls-22{fill:#f2c300;}.cls-23{fill:#3f2500;}.cls-24{fill:#f3f3f3;}</style></defs><g id="Layer_2" data-name="Layer 2"><path class="cls-1" d="M387.17,367.83c-8.87-8.44-22.1-16.19-21.22-30.22a.58.58,0,0,0-1.07-.33.24.24,0,0,0-.27.08l0,0a20,20,0,0,0-2,5.26s0,0,0,0c-1.94,8.36,1.21,17.61,6.09,24.47a66.1,66.1,0,0,0,13.46,13.42c2.81,2.19,5.75,4.23,8.56,6.42,2.66,2.07,4.91,4.52,7.38,6.74l.32.3c0,.61.05,1.21.05,1.83a.36.36,0,0,0,.71,0c0-.11,0-.22,0-.32v0c0-.29,0-.57,0-.86.11.09.21.19.32.27a.38.38,0,0,0,.6-.44,16.15,16.15,0,0,0-.93-1.54c0-.44,0-.83,0-1.25a.14.14,0,0,0,0-.07C398.44,382.47,393.93,374.28,387.17,367.83Z"/><path class="cls-1" d="M464.78,310c-10.43,8.26-20.9,16.57-30.13,26.19a157.39,157.39,0,0,0-19,24.46c-.46.36-.91.72-1.36,1.1l-.43.35-.77.64c.1-.47.18-.94.25-1.4a.76.76,0,0,0,.61-.06.48.48,0,0,0,.2-.62l-.13-.36h0c-.15-.39-.29-.75-.45-1.13a27.41,27.41,0,0,0,0-3.51,14.57,14.57,0,0,0-.16-1.62.14.14,0,0,0,0-.11c-.93-7.66-4.72-15.12-8.54-21.86-7.75-13.59-14.71-27.9-15.73-43.76a.86.86,0,0,0-1-.82h0a.53.53,0,0,0-.28.12,1.06,1.06,0,0,0-.23.24,38.57,38.57,0,0,0-4,34.31c2.54,6.74,6.93,12.6,11.86,17.77,5.94,6.24,13.34,11.5,16.9,19.54.21.49.41,1,.6,1.48l.07.1c-.07.67-.17,1.35-.29,2l-.63.52a.56.56,0,0,0,.32,1,25.75,25.75,0,0,1-.84,2.82c0,.05.06.07.07,0a.33.33,0,0,1,0-.06.11.11,0,0,0,.19,0c.3-.41.6-.81.92-1.2l0,0v-.05c.8-1.06,1.59-2.15,2.37-3.23.21-.27.42-.54.62-.82,1.27-1,2.56-2,3.87-3h0c7.94-5.95,16.35-11.25,23.57-18.08a57.8,57.8,0,0,0,10.59-13.43,103.72,103.72,0,0,1,9.06-13.36v0q1.31-1.65,2.72-3.28a.59.59,0,0,0,.09-.69h0A.57.57,0,0,0,464.78,310Zm-51.32,54.12s0,0,0,0v0h0v0s0,0,0,0c-.58,1-1.15,1.94-1.71,2.92a22.86,22.86,0,0,0,.89-2.56.57.57,0,0,0,.24-.13l.7-.58.19-.17A2.08,2.08,0,0,1,413.46,364.13Z"/><path class="cls-1" d="M427.77,248l-.47.58c-4.68,5.83-8.86,11.32-11.44,18.51a52.58,52.58,0,0,0-2.94,22.23c.73,8.25,3.7,16.14,5.5,24.19a72.89,72.89,0,0,1,1.84,15.18h0a62.52,62.52,0,0,1-.26,6.39c1.23-3.62,2.47-7.27,3.68-10.89v0c3.35-10.17,6.38-20.43,7.92-31.07,2.11-14.65.72-28.79-3-42.93h0c-.21-.84-.44-1.68-.68-2.51A.65.65,0,0,1,427.77,248Z"/><path class="cls-1" d="M463.12,282.31a146.23,146.23,0,0,0-41.4,52.74l-.08.06h0l-2.87,1.77a.67.67,0,0,0-.23.21.79.79,0,0,0-.15.64h0a.74.74,0,0,0,1.11.55l1.65-1c9-5.56,17.82-11.56,23.9-20.47,6.94-10.13,12.54-21.4,18.28-32.26,0,0,0,0,0,0,.24-.46.49-.94.74-1.4l0-.1A.62.62,0,0,0,463.12,282.31Z"/><path class="cls-1" d="M395.55,351.53c-7.27-11.8-19.78-19.84-22.14-34.34-.07-.46-.6-.42-.8-.11a.47.47,0,0,0-.1.2,49.33,49.33,0,0,0-.66,5.93,40.81,40.81,0,0,0,0,5.42,36.36,36.36,0,0,0,8.36,21.17c7.66,9.38,18.09,16.33,24.14,26.93a11.4,11.4,0,0,1,.22,3,0,0,0,0,1,0,0h0a6.19,6.19,0,0,1-.61,2.44c-.21.45.42.87.67.41a7.45,7.45,0,0,0,.91-3.61l.09.16a.5.5,0,0,0,.08.12.54.54,0,0,0,.27.18.64.64,0,0,0,.73-.87q-.44-.9-.9-1.74c-.2-.38-.42-.75-.63-1.12-.5-2.21-1.37-4.4-2-6.36A77.2,77.2,0,0,0,395.55,351.53Z"/><path class="cls-1" d="M460.31,339a.29.29,0,0,0-.16.06,358.32,358.32,0,0,0-33.88,25c-6.88,5.73-13.95,11.55-19.91,18.3l-.14.16s0,0,0,0h0c-.9,1-1.77,2.05-2.6,3.12a2.28,2.28,0,0,0-.3.17c-.51,1.12-1,2.21-1.53,3.28a17,17,0,0,1,2-1.42,1.07,1.07,0,0,1,.22-.15c.58-.37,1.18-.73,1.8-1.05l.58-.31a.52.52,0,0,1,.13-.06c4.2-2.15,9-3.6,12.95-5.58a64.76,64.76,0,0,0,15.85-10.64c8.23-7.78,13.73-17.87,21.37-26.15,0,0,0,0,.05,0a55.55,55.55,0,0,1,4-4A.47.47,0,0,0,460.31,339Z"/><path class="cls-2" d="M399.51,396.61h0c.31-.58.61-1.17.91-1.78.84-1.66,1.69-3.37,2.53-5.13.18-.38.35-.74.52-1.12s.32-.67.48-1c0-.09.09-.18.13-.29h0c.14-.29.28-.57.41-.87.57-1.24,1.14-2.51,1.72-3.82h0s0,0,0,0l.13-.3c2.13-4.85,4.3-10.23,6.39-16.07l0,0v-.05c.22-.62.45-1.24.66-1.88,0,0,0,0,0,0v0h0v0s0,0,0,0,.07-.18.09-.27c.25-.7.49-1.39.72-2.1a240.55,240.55,0,0,0,6.88-24.49c.1-.4.19-.8.27-1.21h0c0-.17.07-.32.1-.49s.07-.31.1-.46h0c.75-3.55,1.45-7.18,2.05-10.89v0a211.33,211.33,0,0,0,2.8-33.25,1.31,1.31,0,0,0-1.31-1.31,1.3,1.3,0,0,0-1.29,1.3c0,3.47-.11,6.91-.31,10.28,0,0,0,0,0,0a213.23,213.23,0,0,1-3.34,27.46h0c-.54,2.84-1.11,5.63-1.74,8.37,0,.2-.1.42-.15.64h0c-1.42,6.15-3,12-4.75,17.54l-.11.38c-.23.71-.45,1.4-.67,2.1s-.38,1.15-.56,1.71c-2.08,6.28-4.28,12.1-6.48,17.38l-.24.57-.18.43c-.27.65-.54,1.28-.81,1.88a0,0,0,0,1,0,0h0q-1.24,2.91-2.46,5.55c-.51,1.11-1,2.19-1.53,3.25s-1,2.1-1.51,3.11c-.28.58-.57,1.15-.85,1.71-.06.12-.11.23-.18.35"/><path class="cls-2" d="M448.09,302.44a162.93,162.93,0,0,1-28.34,32.76,1.22,1.22,0,0,0,1.61,1.84,165.66,165.66,0,0,0,28.77-33.24A1.23,1.23,0,0,0,448.09,302.44Z"/><path class="cls-2" d="M442.52,333.63l-31.17,29.85c-1.14,1.09.48,2.93,1.61,1.84l31.18-29.86C445.27,334.37,443.66,332.54,442.52,333.63Z"/><path class="cls-2" d="M440.08,357.29a380.38,380.38,0,0,0-38.21,29.54,1.23,1.23,0,0,0,1.62,1.84,376.35,376.35,0,0,1,38.21-29.54C443,358.25,441.37,356.43,440.08,357.29Z"/><path class="cls-3" d="M414.28,361.52c-.77-8.84-5.5-16.38-10.48-23.49-6-8.55-11.37-16.75-13.08-27.26-.25-1.56-2.64-1-2.39.5,1.52,9.36,5.81,17.23,11.19,24.91,5.54,7.91,11.5,15.91,12.37,25.85C412,363.6,414.41,363.08,414.28,361.52Z"/><path class="cls-2" d="M407,379.25c-2.83-8-7.37-15.07-12.25-21.92-5.44-7.65-11-15.18-16.57-22.76-.93-1.27-2.76.35-1.84,1.61,5.33,7.3,10.7,14.56,16,21.9,5,6.95,9.63,14.16,12.52,22.27C405.35,381.83,407.53,380.71,407,379.25Z"/><path class="cls-2" d="M399.88,394c-3.63-8.45-9.48-14.95-16.08-21.21s-13.38-12.61-16.52-21.39c-.53-1.48-2.7-.37-2.18,1.09,2.94,8.24,9,14.49,15.26,20.4,7,6.64,13.47,13.2,17.34,22.2C398.32,396.57,400.5,395.47,399.88,394Z"/><path class="cls-1" d="M103,379.73c-13.75-1.46-30.94.71-39.82-12.46-.4-.62-1.24-.14-1.19.44a.31.31,0,0,0-.19.26s0,0,0,0a22.24,22.24,0,0,0,1.83,6.1s0,0,0,0c4,8.83,13.21,14.95,22.31,17.74a74.94,74.94,0,0,0,21.29,2.75c4,0,8.07-.17,12.1-.15,3.8,0,7.51.66,11.26.95l.48.05c.45.53.88,1.06,1.31,1.61a.4.4,0,0,0,.66-.46l-.22-.29s0,0,0,0c-.2-.27-.38-.53-.58-.79l.47,0a.43.43,0,0,0,.25-.81A18.39,18.39,0,0,0,131,394c-.32-.38-.57-.73-.9-1.09l-.07,0C123.13,385.08,113.46,380.85,103,379.73Z"/><path class="cls-1" d="M132.66,274.47c-3.65,14.59-7.31,29.24-9,44.22a178,178,0,0,0-.2,35c-.16.64-.31,1.27-.46,1.92,0,.2-.1.41-.14.61-.1.37-.17.74-.25,1.11-.24-.49-.49-1-.74-1.44a.8.8,0,0,0,.5-.47.53.53,0,0,0-.25-.69l-.36-.23h0c-.39-.25-.77-.47-1.18-.7a30.48,30.48,0,0,0-2.43-3.13q-.6-.71-1.26-1.35a.34.34,0,0,0-.09-.08c-6.11-6.22-14.65-10.29-22.71-13.7-16.3-6.84-32.39-14.86-44.23-28.37a1,1,0,0,0-1.45-.06h0a.72.72,0,0,0-.16.3,1.08,1.08,0,0,0,0,.37,43.59,43.59,0,0,0,20,33.53c6.91,4.28,14.89,6.51,22.87,7.74,9.61,1.5,19.87,1.12,28.59,5.87.53.29,1,.59,1.55.91l.13,0c.41.66.78,1.34,1.15,2l-.21.9a.65.65,0,0,0,1,.66,28.27,28.27,0,0,1,1.18,3.09c0,.07.1,0,.09,0a.11.11,0,0,1,0-.07.12.12,0,0,0,.17-.12c0-.58,0-1.14,0-1.72,0,0,0,0,0,0l0,0c0-1.51,0-3-.1-4.53,0-.39,0-.77,0-1.16.44-1.8.92-3.58,1.41-5.36h0c3-10.79,6.89-21.34,8.65-32.43a65.24,65.24,0,0,0,.24-19.33,116.5,116.5,0,0,1-1.08-18.21h0c0-1.59.08-3.2.18-4.82a.65.65,0,0,0-.39-.68h0A.64.64,0,0,0,132.66,274.47ZM124,358.31s0,0,0,0v0s0,0,0,0v0c.15,1.27.3,2.53.47,3.79a27.53,27.53,0,0,0-1-2.91.68.68,0,0,0,.13-.27c.07-.34.14-.68.22-1,0-.09,0-.2.06-.28A2.43,2.43,0,0,1,124,358.31Z"/><path class="cls-1" d="M56.8,244.43c0,.29,0,.57,0,.85-.18,8.44-.14,16.24,2.5,24.46A59.32,59.32,0,0,0,72,291.67c6.33,6.89,14.43,11.92,21.58,17.89a82.4,82.4,0,0,1,12.11,12.32h0a70.07,70.07,0,0,1,4.17,5.9c-1.4-4.09-2.79-8.2-4.21-12.28v0c-4-11.42-8.35-22.69-14.3-33.29-8.2-14.57-19.18-26.29-32.28-36.37h0c-.77-.61-1.55-1.19-2.34-1.78A.62.62,0,0,1,56.8,244.43Z"/><path class="cls-4" d="M112.09,250.81a165.13,165.13,0,0,0-.76,75.75.45.45,0,0,0,0,.11h0c-.45,1.18-.9,2.37-1.36,3.56a1.07,1.07,0,0,0-.06.35.91.91,0,0,0,.31.67h0a.84.84,0,0,0,1.38-.28q.41-1,.78-2c4.25-11.2,8-22.64,7.32-34.8-.77-13.86-3.52-27.81-5.85-41.5,0,0,0,0,0,0-.1-.58-.2-1.18-.31-1.76l0-.12A.71.71,0,0,0,112.09,250.81Z"/><path class="cls-1" d="M99.24,359.35c-14.65-5.56-31.39-4.15-43.49-15.51-.38-.37-.82,0-.79.45a.45.45,0,0,0,0,.25,53.37,53.37,0,0,0,3.49,5.76,46.61,46.61,0,0,0,3.75,4.85,41.13,41.13,0,0,0,22.07,13.21c13.32,3.12,27.45,2.16,40.17,7.5a12.84,12.84,0,0,1,2.27,2.53,0,0,0,0,1,0,0s0,0,0,0A7.13,7.13,0,0,1,127.9,381c.12.55,1,.49.89-.09a8.54,8.54,0,0,0-1.68-3.87l.2.09.15,0a.55.55,0,0,0,.36,0,.71.71,0,0,0,.06-1.28c-.67-.33-1.34-.65-2-.94-.44-.2-.89-.38-1.33-.57-2-1.63-4.26-3-6.15-4.34A87.54,87.54,0,0,0,99.24,359.35Z"/><path class="cls-4" d="M148.61,303.51a.24.24,0,0,0-.1.16,406,406,0,0,0-13.12,45.75c-2.22,9.88-4.54,20-5.23,30.11a1.93,1.93,0,0,0,0,.24s0,0,0,0,0,0,0,0c-.11,1.53-.18,3.06-.19,4.59l-.15.36c.32,1.35.61,2.68.89,4a23,23,0,0,1,.77-2.62c0-.09.06-.19.1-.28.26-.73.56-1.46.88-2.18l.31-.67a.71.71,0,0,1,.08-.15c2.28-4.81,5.56-9.41,7.76-13.92a73.18,73.18,0,0,0,6.87-20.45c2-12.63,0-25.46,1.13-38.14a.19.19,0,0,1,0-.08c.19-2.1.46-4.2.86-6.3A.52.52,0,0,0,148.61,303.51Z"/><path class="cls-2" d="M133.83,397h0c-.13-.73-.27-1.47-.41-2.22-.39-2.07-.82-4.18-1.28-6.35-.09-.45-.19-.9-.3-1.36s-.17-.82-.26-1.23c0-.11,0-.23-.09-.36h0c-.07-.35-.15-.7-.23-1.05-.35-1.51-.71-3-1.1-4.61h0s0,0,0,0,0,0,0,0a3.15,3.15,0,0,1-.09-.36c-1.44-5.81-3.19-12.12-5.35-18.8,0,0,0,0,0,0l0,0c-.23-.71-.45-1.42-.7-2.14v0s0,0,0,0v0s0,0,0,0-.07-.21-.11-.31c-.25-.8-.52-1.58-.8-2.38A271.75,271.75,0,0,0,112.35,329c-.19-.43-.38-.85-.59-1.27h0c-.09-.17-.17-.34-.25-.51s-.16-.32-.23-.48h0c-1.77-3.69-3.65-7.42-5.67-11.16v0a237.63,237.63,0,0,0-20.39-31.71,1.47,1.47,0,0,0-2.07-.27,1.45,1.45,0,0,0-.26,2.05q3.57,4.68,6.81,9.42s0,0,0,0a242.41,242.41,0,0,1,15.93,26.89h0c1.47,2.91,2.88,5.81,4.2,8.7.11.21.21.45.31.67h0c3,6.48,5.58,12.85,7.84,19l.16.42L119,353l.68,1.92c2.46,7.06,4.5,13.79,6.16,20,.07.22.13.46.18.67s.09.35.14.52c.2.76.39,1.51.57,2.24a0,0,0,0,1,0,0s0,0,0,0q.89,3.46,1.61,6.67c.31,1.35.61,2.66.88,4s.54,2.57.78,3.82c.15.71.29,1.42.42,2.11,0,.15.06.29.09.44"/><path class="cls-3" d="M112.5,279.19a184.53,184.53,0,0,1-2.83,48.87,1.38,1.38,0,0,0,2.71.53A187.38,187.38,0,0,0,115.26,279,1.38,1.38,0,0,0,112.5,279.19Z"/><path class="cls-3" d="M129,311q-3.67,24.1-7.36,48.22c-.27,1.76,2.44,2.29,2.71.53q3.69-24.1,7.36-48.22C132,309.74,129.25,309.2,129,311Z"/><path class="cls-3" d="M143.1,333.84a426,426,0,0,0-13.88,52.78,1.38,1.38,0,0,0,2.71.53,426,426,0,0,1,13.88-52.78C146.37,332.69,143.65,332.18,143.1,333.84Z"/><path class="cls-2" d="M122.9,355.41c-6.79-7.39-16.22-10.89-25.57-13.83C86.07,338,75.61,334.4,66.84,326.16c-1.3-1.22-3.09.88-1.79,2.1,7.8,7.34,17.06,11.43,27.17,14.61,10.41,3.27,21.26,6.33,28.89,14.64C122.31,358.81,124.09,356.7,122.9,355.41Z"/><path class="cls-2" d="M128.59,376.29c-8-5.18-17-8.43-26.07-11.2-10.14-3.1-20.35-6-30.52-9-1.71-.5-2.22,2.21-.53,2.71,9.79,2.87,19.6,5.67,29.37,8.62,9.27,2.79,18.39,6.05,26.55,11.33C128.88,379.74,130.07,377.25,128.59,376.29Z"/><path class="cls-2" d="M132.39,394.44c-9.08-5.07-18.79-6.86-29-7.92s-20.67-2.08-29.53-7.79c-1.49-1-2.68,1.53-1.2,2.49,8.3,5.35,18.08,6.75,27.71,7.75,10.85,1.13,21.17,2.56,30.84,7.95C132.74,397.79,133.93,395.3,132.39,394.44Z"/><path class="cls-4" d="M212.31,387.71c2.82,2.88,5.81,5.6,8.63,8.48,2.67,2.7,4.83,5.79,7.26,8.65l0,0h1.65c-.11-.23-.21-.46-.33-.69.05-.5.11-.92.13-1.41a.11.11,0,0,0,0-.08c.66-10.4-3.16-20.24-9.78-28.48-8.66-10.79-22.32-21.44-19.23-37a.67.67,0,0,0-1.16-.54.29.29,0,0,0-.31.05s0,0,0,0a22.2,22.2,0,0,0-3,5.59l0,0c-3.43,9.07-1.28,19.9,3.16,28.32A74.83,74.83,0,0,0,212.31,387.71Z"/><path class="cls-1" d="M315.47,321.05c-12.92,7.7-25.89,15.43-37.67,24.83a178.13,178.13,0,0,0-25,24.55c-.57.33-1.13.67-1.69,1-.17.1-.36.21-.53.33-.33.18-.64.39-1,.59.19-.5.35-1,.5-1.53a.84.84,0,0,0,.69,0,.55.55,0,0,0,.32-.67c0-.14-.07-.28-.09-.42h0c-.1-.46-.2-.88-.33-1.33a30.53,30.53,0,0,0,.5-3.94,16.17,16.17,0,0,0,.07-1.84.24.24,0,0,0,0-.12c.1-8.72-3-17.65-6.31-25.76-6.64-16.38-12.29-33.45-11.06-51.38a1,1,0,0,0-1-1.06h0a.6.6,0,0,0-.33.1,1,1,0,0,0-.29.23,43.59,43.59,0,0,0-9.67,37.82c1.85,7.93,5.88,15.16,10.64,21.68,5.71,7.88,13.22,14.88,16,24.42.16.58.31,1.15.45,1.74a.34.34,0,0,0,.06.12c-.18.75-.4,1.5-.63,2.24l-.78.49a.63.63,0,0,0,.21,1.13,31,31,0,0,1-1.36,3s.06.09.08,0a.12.12,0,0,1,0-.07.12.12,0,0,0,.2,0c.41-.41.81-.82,1.22-1.21l0,0,0-.05c1.06-1.07,2.11-2.17,3.14-3.26.28-.27.55-.55.81-.83,1.58-1,3.18-1.87,4.79-2.78h0c9.78-5.48,20-10.17,29.11-16.73A65.33,65.33,0,0,0,300.55,339a117.23,117.23,0,0,1,12.15-13.61h0q1.71-1.66,3.53-3.28a.66.66,0,0,0,.22-.75v0A.64.64,0,0,0,315.47,321.05ZM249.89,374l0,0v0h0s0,0,0,0v0c-.79,1-1.58,2-2.35,3a28,28,0,0,0,1.39-2.73.56.56,0,0,0,.28-.1c.29-.19.58-.38.87-.55l.24-.16A2.9,2.9,0,0,1,249.89,374Z"/><path class="cls-1" d="M283.29,246.08c-.21.2-.42.39-.61.59-6.11,5.83-11.62,11.35-15.58,19a59.47,59.47,0,0,0-6.62,24.46c-.42,9.35,1.73,18.63,2.53,27.91a82.36,82.36,0,0,1-.2,17.28h0a71.23,71.23,0,0,1-1.24,7.12c1.91-3.87,3.85-7.76,5.75-11.64v0c5.28-10.89,10.21-21.93,13.52-33.62,4.56-16.08,5.12-32.13,3-48.54h0c-.1-1-.23-1.94-.38-2.91A.64.64,0,0,1,283.29,246.08Z"/><path class="cls-1" d="M317.75,289.78a165.08,165.08,0,0,0-54.25,52.88.27.27,0,0,0-.11,0h0l-3.48,1.55a.84.84,0,0,0-.29.2.92.92,0,0,0-.26.69v0a.83.83,0,0,0,1.17.78l2-.89c10.94-4.88,21.7-10.29,29.84-19.35,9.28-10.31,17.24-22.1,25.3-33.4l0,0,1-1.46a.93.93,0,0,0,0-.1A.71.71,0,0,0,317.75,289.78Z"/><path class="cls-4" d="M231.72,357.2c-6.39-14.31-19.19-25.19-19.67-41.78,0-.53-.6-.56-.87-.24a.54.54,0,0,0-.15.21,55.7,55.7,0,0,0-1.62,6.54,45.67,45.67,0,0,0-.79,6.07,41.11,41.11,0,0,0,6.19,25c7.18,11.64,17.82,21,23,33.77a12.74,12.74,0,0,1-.2,3.4h0s0,0,0,0a7,7,0,0,1-1,2.63c-.3.48.35,1.05.69.57a8.54,8.54,0,0,0,1.57-3.91l.07.2a.91.91,0,0,0,.07.14.57.57,0,0,0,.27.24.71.71,0,0,0,.95-.86c-.24-.71-.48-1.41-.74-2.09-.17-.46-.37-.9-.54-1.35-.23-2.54-.88-5.13-1.26-7.42A86.94,86.94,0,0,0,231.72,357.2Z"/><path class="cls-1" d="M306.13,352.83a.46.46,0,0,0-.19,0,409,409,0,0,0-41.7,23c-8.56,5.4-17.35,10.86-25,17.52l-.18.16,0,0v0q-1.74,1.49-3.39,3.1l-.36.14c-.73,1.18-1.47,2.32-2.2,3.45a19.84,19.84,0,0,1,2.4-1.3,1.66,1.66,0,0,1,.27-.13c.71-.33,1.43-.64,2.17-.91l.69-.26a.47.47,0,0,1,.16,0c5-1.79,10.6-2.69,15.34-4.32a72.86,72.86,0,0,0,19.35-9.55c10.38-7.48,18.05-18,27.85-26.08l.06,0a60.25,60.25,0,0,1,5.08-3.83A.53.53,0,0,0,306.13,352.83Z"/><path class="cls-2" d="M234.28,401c.26-.39.5-.78.75-1.18s.46-.7.69-1.05c.06-.1.13-.2.19-.31h0c.2-.3.4-.6.59-.91q1.23-1.95,2.5-4h0v0l0,0c.05-.1.12-.2.19-.31,3.11-5.12,6.35-10.81,9.56-17.05l0,0,0-.05c.34-.66.69-1.32,1-2v0s0,0,0,0h0v0l0,0,.14-.29c.38-.74.75-1.48,1.12-2.24a273.18,273.18,0,0,0,11.37-26.4c.17-.44.33-.87.49-1.31h0c.05-.18.12-.35.19-.54s.11-.33.17-.49h0c1.38-3.86,2.7-7.82,3.93-11.89v0A238.3,238.3,0,0,0,275.45,294a1.47,1.47,0,0,0-2.92-.4c-.52,3.89-1.16,7.71-1.88,11.47a.06.06,0,0,0,0,0,241.12,241.12,0,0,1-7.85,30.25h0c-1,3.11-2.09,6.14-3.21,9.12-.07.22-.17.46-.26.69v0c-2.51,6.68-5.19,13-7.94,18.94l-.19.4-1.06,2.25-.88,1.84c-3.27,6.72-6.61,12.91-9.86,18.49l-.36.6-.27.46c-.4.68-.79,1.35-1.18,2h0s0,0,0,0c-1.21,2-2.41,4-3.58,5.84-.74,1.17-1.47,2.31-2.2,3.42"/><path class="cls-2" d="M297.91,310.08a184.12,184.12,0,0,1-36.65,32.45,1.38,1.38,0,0,0,1.53,2.3A186.88,186.88,0,0,0,300,311.91,1.38,1.38,0,0,0,297.91,310.08Z"/><path class="cls-2" d="M287,344.17,247.62,373c-1.44,1.05.1,3.34,1.53,2.29l39.39-28.77C290,345.42,288.44,343.12,287,344.17Z"/><path class="cls-2" d="M280.73,370.32a426.63,426.63,0,0,0-47.22,27.36,1.38,1.38,0,0,0,1.54,2.3,426.46,426.46,0,0,1,47.22-27.37C283.86,371.82,282.3,369.54,280.73,370.32Z"/><path class="cls-2" d="M251.19,371.19c.46-10-3.71-19.17-8.22-27.87-5.43-10.48-10.22-20.48-10.56-32.5,0-1.78-2.81-1.57-2.76.21.31,10.71,3.93,20.16,8.81,29.57,5,9.69,10.5,19.54,10,30.81C248.36,373.18,251.11,373,251.19,371.19Z"/><path class="cls-3" d="M240.4,390c-2-9.35-6-18-10.43-26.39-5-9.38-10.11-18.65-15.17-28-.85-1.57-3.13,0-2.29,1.53,4.87,9,9.8,17.91,14.6,26.91,4.55,8.54,8.67,17.31,10.68,26.82C238.16,392.6,240.76,391.68,240.4,390Z"/><path class="cls-3" d="M211.5,378.88c6.52,8.08,12.51,16,15.65,26H230c-2.85-9.74-8.33-17.73-14.67-25.58s-13.1-16.13-15.29-26.43c-.37-1.74-3-.82-2.61.9C199.52,363.41,205.41,371.33,211.5,378.88Z"/><path class="cls-5" d="M135.62,401h97.13c7.42,0,11.84-6,9.89-13.43L168.8,107.72c-2-7.41-9.55-13.42-17-13.42H54.7c-7.41,0-11.84,6-9.88,13.42l73.83,279.89C120.61,395,128.21,401,135.62,401Z"/><path class="cls-6" d="M136.53,389.78h93.25c7.42,0,11.84-6,9.89-13.42L168.8,107.72c-2-7.41-9.55-13.42-17-13.42H58.58c-7.41,0-11.84,6-9.88,13.42l70.86,268.64C121.52,383.77,129.12,389.78,136.53,389.78Z"/><path class="cls-7" d="M60.93,99.59h96.26a10.68,10.68,0,0,1,9.7,7.68L241,388.07c1.12,4.24-1.41,7.67-5.65,7.67H139.05a10.67,10.67,0,0,1-9.7-7.67L55.28,107.27C54.16,103,56.69,99.59,60.93,99.59Z"/><path class="cls-5" d="M117.22,102.2c-3.76.07-1,8,2.81,8S121,102.13,117.22,102.2Z"/><path class="cls-8" d="M366.45,207.5l-6.53,17.62-24.75-5L334,224.51l-.35,1.34,26.45,11.5a7.22,7.22,0,0,0,10-7.81Z"/><path class="cls-9" d="M370.13,229.54l-3.68-22-3.17,8.55c1.72,5.68,3,11.37,1.81,17.46.58-.09,1.16-.19,1.75-.32-.59.13-1.17.23-1.75.32,0,.2-.07.4-.12.61,0-.21.08-.41.12-.61-11.07,1.62-20.74-5.33-31.06-9h0l-.35,1.34,26.45,11.5A7.22,7.22,0,0,0,370.13,229.54Z"/><polygon class="cls-9" points="324.95 215.2 320.16 218.24 324.95 224.47 328.9 226.25 333.69 225.85 335.17 220.17 324.95 215.2"/><path class="cls-8" d="M334,224.51l-2.8-1.24a8.19,8.19,0,0,1-3.89-4.51l-.54-1.56-5.41-2.5a.81.81,0,0,1-.43-.94h0a.8.8,0,0,1,1-.56l7.17,1a5.75,5.75,0,0,1,4.19,2.8l1.86,3.19Z"/><path class="cls-10" d="M345.47,145.76a15,15,0,0,0,9.66,14.94c3,1.05,6.63,1.28,8.62,3.78s1.47,5.7,1.28,8.69.27,6.59,2.93,8c3.36,1.76,7.48-1.36,11.17-.45s5.21,5.23,5.39,9-.4,7.72,1.32,11.05,5.31,5.15,8.94,5.61,7.29-.34,10.82-1.32a38.44,38.44,0,0,0,12.24-5.32c3.63-2.6,6.57-6.43,7.28-10.85s-1.18-9.35-5.1-11.5c-2.3-1.26-5.28-1.68-6.69-3.88s-.45-5.39.58-8,2-5.72.28-7.93c-3.05-4-10.83-.34-13.88-4.35-1.18-1.56-1.11-3.69-1.22-5.64a24,24,0,0,0-34.42-20.27c-2.89,1.35-4.85,3.75-7.51,5.27s-5.08,1.91-7.3,4.09A14.64,14.64,0,0,0,345.47,145.76Z"/><path class="cls-11" d="M420,177.36c-2.3-1.26-5.28-1.68-6.69-3.88s-.45-5.39.58-8,2-5.72.28-7.93c-3.05-4-10.83-.34-13.88-4.35-1.18-1.56-1.11-3.69-1.22-5.64a24.7,24.7,0,0,0-16-21.33A26.41,26.41,0,0,1,395.57,150c-.07,3.31-2.16,7.48,2.08,9,3,1.08,6.23.69,8.51,3.38,1.34,1.57,1.31,3.47.73,5.36a7.89,7.89,0,0,0-.27,5.31,15,15,0,0,0,3.21,4.86c1.18,1.29,2.36,2.64,2.41,4.48a7.23,7.23,0,0,1-2.1,4.9c-2.28,2.42-5.93,3.58-9.14,4.07-3,.45-6,.12-8.39-1.95-2.21-1.94-3.34-4.9-4.39-7.56a9.84,9.84,0,0,0-2.37-4.12A8.74,8.74,0,0,0,382,175.9c-3.26-.82-7-.45-10.07-2-2.71-1.38-3.19-4.29-3.06-7s.73-5.87-1.65-7.72a10.68,10.68,0,0,0-4.43-1.71A48.93,48.93,0,0,1,358,156.2c-3.41-1.1-6.66-2.81-8.82-5.74a13.24,13.24,0,0,1-2.28-9c0-.31.06-.64.1-1a13.85,13.85,0,0,0-1.56,5.23,15,15,0,0,0,9.66,14.94c3,1.05,6.63,1.28,8.62,3.78s1.47,5.7,1.28,8.69.27,6.59,2.93,8c3.36,1.76,7.48-1.36,11.17-.45s5.21,5.23,5.39,9-.4,7.72,1.32,11.05,5.31,5.15,8.94,5.61,7.29-.34,10.82-1.32a38.44,38.44,0,0,0,12.24-5.32c3.63-2.6,6.57-6.43,7.28-10.85S423.94,179.51,420,177.36Z"/><polygon class="cls-8" points="403.73 392.04 397.34 393.29 394.74 375.03 405.6 373.44 403.73 392.04"/><polygon class="cls-12" points="374.95 256.85 402.56 255.46 404.54 277.55 401.07 317.08 407.24 330.13 405.6 373.44 394.74 375.03 386.4 325.15 374.95 256.85"/><polygon class="cls-13" points="404.31 390.34 407.4 399.73 376.11 400.2 376.39 398.12 395.96 389.24 398.6 391.3 404.31 390.34"/><polygon class="cls-8" points="420.3 391.52 413.5 392.85 410.42 373.44 421.69 372.46 420.3 391.52"/><path class="cls-14" d="M417.27,255.9q-12.93,1.05-25.77,2.91L401.65,321l8.77,52.44,11.27-1,1.39-31.55a41.24,41.24,0,0,0-7.93-26.41h0L422,291.8c1.38-2.33,3.77-16.46,2.21-30.17A6.45,6.45,0,0,0,417.27,255.9Z"/><path class="cls-12" d="M416.83,302.61l-7.72,21c-.42,1.16,1.38,1.49,1.8.34l7.71-21C419.05,301.79,417.25,301.46,416.83,302.61Z"/><path class="cls-12" d="M416.08,318.12a1,1,0,0,0-1.21.61l-2.68,5.64a.88.88,0,0,0,.53,1.17,1,1,0,0,0,1.21-.62l2.68-5.64A.87.87,0,0,0,416.08,318.12Z"/><polygon class="cls-14" points="420.91 389.72 424.2 399.7 390.93 400.2 391.23 397.99 412.03 388.55 414.84 390.74 420.91 389.72"/><path class="cls-15" d="M419.8,262.48a51,51,0,0,1-41.47,9.19c-1.16-.26-1.73,1.52-.56,1.78a53,53,0,0,0,43.28-9.58C422,263.14,420.75,261.76,419.8,262.48Z"/><path class="cls-15" d="M384.88,217.44a13.83,13.83,0,0,0-3.78-5.76,1,1,0,0,0-1.32-.07,1,1,0,0,0-.07,1.32,11.73,11.73,0,0,1,1.11,1.12c.17.19.34.4.5.61l.24.31.1.14v0l0,0a14.62,14.62,0,0,1,.77,1.32q.18.36.33.72l.15.36a1.22,1.22,0,0,0,.07.17l0,0v.05a1,1,0,0,0,1.11.71A.94.94,0,0,0,384.88,217.44Z"/><path class="cls-16" d="M375.53,177.27c3.05.8,12.18-6.84,15.39-6.76s11.63-.42,14.05,7.48c2.06,6.7-1.83,15-3.9,21.86-1.1,3.61-2.45,7.2-2.76,10.9-.47,5.69,1.63,11.14,4.77,15.63s16.95,17.38,22,35.47c-11.13,13-34.59,16.89-50.09,12.44C374,262,367.36,227.53,367.12,215a2.14,2.14,0,0,0-.76-1.67c-4.06-3.63-6.24-8.92-4.87-14.19C363.66,190.74,367.38,186.26,375.53,177.27Z"/><path class="cls-17" d="M366.36,213.34a2.14,2.14,0,0,1,.76,1.67,125,125,0,0,0,1.62,15.45c1.24.35,2.52.66,3.81.94,1.87-.87,3.73-1.8,5.52-2.76a51.6,51.6,0,0,0,9.79-6.77,43.39,43.39,0,0,0,7.67-9.2c1.07-1.64,2.12-3.29,3.24-4.9.57-2.66,1.5-5.29,2.3-7.92l0-.11a2.83,2.83,0,0,0-4.63-2.87,41.37,41.37,0,0,1-34.25,10.81A16.36,16.36,0,0,0,366.36,213.34Z"/><path class="cls-15" d="M389.51,175.24a8.92,8.92,0,0,1-12.63,4.47.46.46,0,0,0-.43.82,9.85,9.85,0,0,0,13.89-4.85C390.57,175.13,389.75,174.69,389.51,175.24Z"/><rect class="cls-18" x="312.12" y="190.45" width="23.84" height="12.76" transform="translate(350.61 -181.37) rotate(62.74)"/><rect class="cls-19" x="313.85" y="191.72" width="20.38" height="10.21" transform="translate(350.61 -181.37) rotate(62.74)"/><path class="cls-20" d="M321.26,198.12h0a3.17,3.17,0,0,1,1.36-4.27h0a3.17,3.17,0,0,1,4.27,1.37h0a3.16,3.16,0,0,1-1.37,4.26h0A3.16,3.16,0,0,1,321.26,198.12Z"/><path class="cls-8" d="M336.59,200.26l-.2-.1-4.1-1.92a1.61,1.61,0,0,0-2.25,1.1c-.21.91-.47,1.81-.51,2.07a21.32,21.32,0,0,0,.34,7.84c.33,1.4.64,3.25,2.11,3.89.24.1,3,1.22,2.95,1.29l.48-1.68,1.21-4.24Z"/><polygon class="cls-8" points="355.72 210.62 335.71 207.33 334.94 214.43 369.22 225.85 370.3 218.58 371.1 213.15 355.72 210.62"/><path class="cls-8" d="M371.1,213.15l-15.38-2.53-20-3.29-.61,5.61c11.34,3.35,22.7,8.61,34.68,9.1l.51-3.46Z"/><path class="cls-8" d="M373.33,222c8-7.95,15.95-15.18,22.21-24.91-2.84-1.76-5.21-4.44-8.05-6.19L371.1,213.15,369.78,222C371,222.09,372.14,222.08,373.33,222Z"/><path class="cls-9" d="M388.5,189.57l-1,1.37c2.84,1.75,5.21,4.43,8.05,6.19-6.26,9.73-14.2,17-22.21,24.91-1.19,0-2.37.05-3.55,0-12-.49-21.82-3.82-33.16-7.16l-1.69-.45,34.29,11.42c11.19,3.72,30-29,30-29Z"/><path class="cls-15" d="M400,196.2l-11.21-7.44a.94.94,0,1,0-.88,1.65l11.21,7.44a.93.93,0,0,0,1.26-.39A1,1,0,0,0,400,196.2Z"/><path class="cls-8" d="M365,144.93c5.29,2.6,12.67,6.72,18.27,3a7.14,7.14,0,0,0,2.25-2.35,2.79,2.79,0,0,1,1.94.55,5.24,5.24,0,0,1,1.81,5.79c-.74,2.17-2.48,2.91-4.75,3.21.42,6.23,2.18,10.91,4.06,17.2-.69,3.21-1.86,5.07-4.41,6.28s-3.17,1.17-5.83.21A73.65,73.65,0,0,0,376,168.39a20.94,20.94,0,0,1-8.87,2.71c-.81,0-9.39-13.18-9.48-31.32A29,29,0,0,0,365,144.93Z"/><path class="cls-9" d="M371.36,170.34a19.09,19.09,0,0,0,4.61-2,62.83,62.83,0,0,1,2.13,9.13l-.26-11.32Z"/><path class="cls-9" d="M383.64,148.66a5.42,5.42,0,0,1,2.19-1.66c.45-.19.69.61.24.81a4.72,4.72,0,0,0-1.89,1.53,5.15,5.15,0,0,0-.62,1.07,2,2,0,0,1-.47.86.29.29,0,0,1-.45-.18C382.43,150.28,383.19,149.23,383.64,148.66Z"/><path class="cls-21" d="M369.34,150.77a2.25,2.25,0,0,1-.07-1.06.71.71,0,0,1,1.16-.35,2.36,2.36,0,0,1,.52.93,4.86,4.86,0,0,1,.27.92.84.84,0,0,1-1.6.48A4.67,4.67,0,0,1,369.34,150.77Z"/><path class="cls-21" d="M360.36,151.85a2.28,2.28,0,0,1,0-1.07.72.72,0,0,1,1.17-.31,2.27,2.27,0,0,1,.49.95,4.89,4.89,0,0,1,.24.93.84.84,0,0,1-1.62.43A4.89,4.89,0,0,1,360.36,151.85Z"/><path class="cls-16" d="M367,163.22a23.15,23.15,0,0,0,6.24-3.33,11.25,11.25,0,0,1-5.84,3.79A5.72,5.72,0,0,0,367,163.22Z"/><path class="cls-22" d="M373.26,159.89l.28-.21a6.58,6.58,0,0,1,0,1.33,5.3,5.3,0,0,1-1.13,2.75,5.67,5.67,0,0,1-3.74,2c-.25-.45-.49-.91-.75-1.35a8.27,8.27,0,0,0-.46-.69A11.25,11.25,0,0,0,373.26,159.89Z"/><path class="cls-22" d="M366.43,144.05a9.37,9.37,0,0,1,6.8.6c.52.25.1,1-.41.78a8.4,8.4,0,0,0-6.11-.53C366.16,145.05,365.88,144.21,366.43,144.05Z"/><path class="cls-22" d="M358.58,147.2a3.73,3.73,0,0,1,2.15-1.88.44.44,0,0,1,.27.84,2.88,2.88,0,0,0-1.64,1.46C359.11,148.13,358.32,147.72,358.58,147.2Z"/><path class="cls-21" d="M365.71,160.61a4.57,4.57,0,0,0-1.77-.33c-.33,0-.82-.18-1-.52a1,1,0,0,1,.12-.68c.13-.31.25-.62.37-.93a16.26,16.26,0,0,0,.68-1.88.4.4,0,0,0-.73-.3,19.61,19.61,0,0,0-.94,2.09c-.27.64-.69,1.36-.39,2.06a1.92,1.92,0,0,0,1.33,1,5.71,5.71,0,0,0,1,.13,5.12,5.12,0,0,1,.95.17A.45.45,0,0,0,365.71,160.61Z"/><path class="cls-8" d="M336.09,199.53a31.8,31.8,0,0,0-10.82-4.68.93.93,0,0,0-.42,1.81,30.72,30.72,0,0,1,10.36,4.51.93.93,0,0,0,.88-1.64Z"/><path class="cls-8" d="M331.51,200.27a11.79,11.79,0,0,0-6.34-2.9,1,1,0,0,0-1.12.69.94.94,0,0,0,.69,1.12,13.26,13.26,0,0,1,1.55.3,8.13,8.13,0,0,1,1.39.5,9.56,9.56,0,0,1,2.56,1.66.93.93,0,0,0,1.27-1.37Z"/><path class="cls-8" d="M330.83,202.89a12.31,12.31,0,0,0-5.48-3,.93.93,0,1,0-.42,1.81l.69.2.32.1.16.06h0a10.26,10.26,0,0,1,1.3.61c.2.1.4.22.59.34l.28.18.15.11,0,0a12.15,12.15,0,0,1,1.09.93.94.94,0,0,0,1.32,0A1,1,0,0,0,330.83,202.89Z"/><path class="cls-8" d="M331.39,207.07a13.66,13.66,0,0,0-5.84-4.13.94.94,0,0,0-1.12.7,1,1,0,0,0,.69,1.12h.06l.16.06.35.15.7.34a13.19,13.19,0,0,1,1.35.83h0l.17.13.31.23c.2.17.39.33.58.51s.37.35.55.54l.27.28.11.13.07.08a1,1,0,0,0,1.29.28A.94.94,0,0,0,331.39,207.07Z"/><polygon class="cls-9" points="293.61 223.52 305.49 224.29 312.63 218.78 314.59 218.78 310.31 213.8 304.7 212.85 293.61 220.54 293.61 223.52"/><path class="cls-8" d="M293.61,220.54l4.09-.94a11.13,11.13,0,0,0,6.71-4.57l1.27-1.86,8-1.39a1.1,1.1,0,0,0,.91-1.08h0a1.1,1.1,0,0,0-1.12-1.09l-9.79-1.23a7.84,7.84,0,0,0-6.5,2.2l-3.57,3.55Z"/><polygon class="cls-8" points="241.37 387.27 229.29 387.27 229.22 382.89 241.46 382.89 241.37 387.27"/><polygon class="cls-22" points="262.32 396.39 241.69 387.27 228.36 387.27 226.17 398.53 263.52 398.53 262.32 396.39"/><polygon class="cls-16" points="226.17 398.53 225.82 400.31 264.53 400.31 263.52 398.53 226.17 398.53"/><path class="cls-12" d="M183,301.05V252.38l6.43,2.47a7.65,7.65,0,0,1,4.42,9.84h0a6.66,6.66,0,0,0,2.1,7.56l49,38.81a8.74,8.74,0,0,1,3.31,7.38l-3.7,64.45h-19.8l-2.09-55.26Z"/><path class="cls-14" d="M184.79,255.46l.16,16.92,31.13,34.86a13.93,13.93,0,0,1,3.55,9.53h0a18.38,18.38,0,0,1-11.47,16.73l-48.71,19.8L152.75,332l41-15.76-22-9a45.49,45.49,0,0,1-28.28-42.11h0Z"/><path class="cls-12" d="M206.15,317.08a50.83,50.83,0,0,1-20-5.81.93.93,0,0,0-.84,1.66,53.12,53.12,0,0,0,21,6C207.44,319,207.33,317.17,206.15,317.08Z"/><path class="cls-12" d="M199.43,320.14l-4.67-2.87a.93.93,0,1,0-1,1.58l4.67,2.87a.93.93,0,0,0,1-1.58Z"/><path class="cls-1" d="M219.12,202.36c2.49-4.27,5-8.29,9.29-5.69a116.89,116.89,0,0,0,20.7,9.78l-7.83,17.1c-7.85-2.09-17-3.28-24.12-7.61C212.9,213.35,216.57,206.71,219.12,202.36Z"/><path class="cls-8" d="M257.81,211.38l-8.35-3.88a43.93,43.93,0,0,1-8.4,15.23l15.91,5,36.64-4.18v-9.39Z"/><path class="cls-8" d="M255.42,224.55l38.19-3.64v-6.78l-35.8-2.75-7.54-3.51a25.91,25.91,0,0,1-4.22,13.27Z"/><path class="cls-9" d="M255.42,224.55l-9.37-3.41a25.91,25.91,0,0,0,4.22-13.27l-1.16-.54-.37-.16c-1.28,5.57-3.48,11.09-7.57,15.6L257,227.7l36.64-4.18v-2.61Z"/><path class="cls-22" d="M248.47,206.51a55.89,55.89,0,0,1-7.79,16c-.69,1,.88,2,1.57,1a57.75,57.75,0,0,0,8-16.46A.93.93,0,0,0,248.47,206.51Z"/><path class="cls-1" d="M194.86,260.18A48.31,48.31,0,0,1,198,249.34c5.58-14.06,13.53-27.71,23.87-38.8a77.36,77.36,0,0,1,11-9.75c-10.56-10.87-27.61-20.43-44.29-24a14.28,14.28,0,0,0-16.38,9l-12.68,15.69a83.24,83.24,0,0,0-14,79.53h0c21.4-14.55,44.45-16.47,49.36-14.8A19.1,19.1,0,0,1,194.86,260.18Z"/><path class="cls-22" d="M174.83,255.63a73.22,73.22,0,0,0-22.29,6c-6.41-28.83,9.2-54.91,27.32-76.46,2.59-3.08-1.85-7.2-4.64-4.31a14.37,14.37,0,0,0-3.09,4.92l-12.68,15.69a83.24,83.24,0,0,0-14,79.53h0q2.85-1.94,5.72-3.58a21.52,21.52,0,0,1,2.26-6.47c4-8.66,13.22-10.18,21.91-12.38A1.48,1.48,0,0,0,174.83,255.63Z"/><path class="cls-22" d="M191.42,259.79a40.15,40.15,0,0,0-17,2.87c-1.11.44-.21,2.08.9,1.63a38,38,0,0,1,16.07-2.64A.93.93,0,0,0,191.42,259.79Z"/><path class="cls-22" d="M216.67,215.4a92.94,92.94,0,0,0-21,37.73,94.92,94.92,0,0,0-2.52,12.15c-.16,1.19,1.7,1.26,1.87.08a90.51,90.51,0,0,1,22.93-48.57C218.72,215.92,217.48,214.52,216.67,215.4Z"/><path class="cls-8" d="M156.87,243.09s6.18,2.75,10.32,5c1.29,4.64-2.14,9-6,11a10,10,0,0,1-14.54-9.35Z"/><path class="cls-8" d="M175.46,260.55a17.8,17.8,0,0,0-8.87-12.74c-1.93-1.1-3.68,1.87-1.75,3a14.58,14.58,0,0,1,7.28,10.67C172.46,263.64,175.79,262.73,175.46,260.55Z"/><path class="cls-8" d="M171.52,263.18a17.84,17.84,0,0,0-8.86-12.74c-1.94-1.1-3.69,1.88-1.76,3a14.53,14.53,0,0,1,7.29,10.66C168.53,266.27,171.86,265.36,171.52,263.18Z"/><path class="cls-8" d="M166.53,264.57a17.82,17.82,0,0,0-8.86-12.73c-1.94-1.1-3.69,1.87-1.76,3a14.62,14.62,0,0,1,7.29,10.67C163.54,267.67,166.87,266.75,166.53,264.57Z"/><path class="cls-8" d="M161.33,264.55a17.8,17.8,0,0,0-8.86-12.73c-1.94-1.1-3.69,1.87-1.76,3A14.55,14.55,0,0,1,158,265.46C158.34,267.65,161.67,266.73,161.33,264.55Z"/><path class="cls-8" d="M156.87,243.09,144.28,207l36.14-12.86L172.83,178l-46.71,15.37a5.07,5.07,0,0,0-3,7l23.56,49.38Z"/><path class="cls-9" d="M180.42,194.15,172.83,178l-13.07,4.3c-.37,5.14-.54,10.24.9,14.94a106.89,106.89,0,0,1-21.43,8.41,28.55,28.55,0,0,1,6.92,6.71L144.28,207Z"/><path class="cls-8" d="M139.23,205.65a106.89,106.89,0,0,0,21.43-8.41c-1.44-4.7-1.27-9.8-.9-14.94l-33.64,11.07a5.07,5.07,0,0,0-3,7l23.56,49.38,10.18-6.65-10.72-30.73A28.55,28.55,0,0,0,139.23,205.65Z"/><path class="cls-1" d="M154.72,203.41a143.43,143.43,0,0,1,25.07-7.07c4.94-1,9-5.85,7.86-11.27-1.1-5.1,2.86-8.22-2.52-8.63-13.62-1-27.34,4.45-36.26,7.77A48.33,48.33,0,0,0,154.72,203.41Z"/><path class="cls-22" d="M148.53,184.59a46.35,46.35,0,0,0,6.12,18.75c.61,1,2.18,0,1.57-1a44.13,44.13,0,0,1-5.83-17.85C150.27,183.3,148.41,183.39,148.53,184.59Z"/><path class="cls-23" d="M226,159.26a8.94,8.94,0,0,0,5-8.93c-.36-3.55-2.74-6.76-5.86-8.86a25.1,25.1,0,0,0-10.77-3.65,27.19,27.19,0,0,0-9.69.35,6.38,6.38,0,0,0-4.07,2.39c-.81,1.33-.26,3.4,1.35,3.74a3.32,3.32,0,0,0-3.39,1.62,2.84,2.84,0,0,0,.77,3.45,3.89,3.89,0,0,0-3.8,2,3.36,3.36,0,0,0,.91,4,3.26,3.26,0,0,0-1.88,3.9,11,11,0,0,0,2.43,4.06,46.1,46.1,0,0,1,6.12,10.34,25,25,0,0,0,6.41-3.38"/><path class="cls-8" d="M227.41,150.67a19.61,19.61,0,0,0-6.07,0c-1.74.21-7.05,1.35-7.05,1.35-1.26,3.69-1.88,6.15-4.86,8.67a1.66,1.66,0,0,1-1,.5,5.79,5.79,0,0,1-1.52-.51c-.66-.2-1.32-.44-2-.69-2-.79-4.26-1.9-6.25-.41a4.57,4.57,0,0,0-1.17,5.6,5.77,5.77,0,0,0,5.12,2.94c.82,5.88.66,8-.23,13.92,1,2.78,3.66,6.26,6.1,7a9.86,9.86,0,0,0,7.47-.41,53.19,53.19,0,0,1,1-8.54,18.2,18.2,0,0,0,5.89.1,3.31,3.31,0,0,0,2-.88,3.6,3.6,0,0,0,.65-1.51A78.8,78.8,0,0,0,227.41,150.67Z"/><path class="cls-9" d="M216,188.64a53.19,53.19,0,0,1,1-8.54,20,20,0,0,0,3.3.29c-2.49-.45-4.23-1.41-6.26-2C214.37,182.15,215.46,188.93,216,188.64Z"/><path class="cls-9" d="M202.26,162.29a5,5,0,0,0-2.17-1.21c-.43-.11-.54.63-.12.76a4.24,4.24,0,0,1,1.89,1.13,4.63,4.63,0,0,1,.69.88c.18.29.25.54.53.71a.26.26,0,0,0,.38-.21C203.55,163.6,202.73,162.75,202.26,162.29Z"/><path class="cls-21" d="M217.6,159.44a2.06,2.06,0,0,0-.06-1,.64.64,0,0,0-1.09-.17,2.15,2.15,0,0,0-.35.9,5,5,0,0,0-.13.86.76.76,0,0,0,1.5.23A3.58,3.58,0,0,0,217.6,159.44Z"/><path class="cls-21" d="M226.92,158.67a2.13,2.13,0,0,0-.3-.92.64.64,0,0,0-1.09.12,1.91,1.91,0,0,0-.11.95,3.62,3.62,0,0,0,.09.87.76.76,0,0,0,1.51-.15A4.22,4.22,0,0,0,226.92,158.67Z"/><path class="cls-9" d="M216.67,174.28a8.85,8.85,0,0,1,4.45,1.65c.35.25-.08.77-.43.52a8.19,8.19,0,0,0-4.12-1.5C216.14,174.91,216.24,174.25,216.67,174.28Z"/><path class="cls-23" d="M224.55,152.56c1.15-.76,3.25.39,3.83,1.47a.6.6,0,0,1-.65.81c-.56-.16-1-.48-1.59-.67s-1.2-.19-1.62-.59A.66.66,0,0,1,224.55,152.56Z"/><path class="cls-23" d="M214.5,153.79c1.11-1.33,3.59-1.69,5.22-1.57.78.05.68,1.2,0,1.31a16.92,16.92,0,0,0-2.53.51,11.11,11.11,0,0,1-2.17.67A.57.57,0,0,1,214.5,153.79Z"/><path class="cls-24" d="M215.36,166.73a28.91,28.91,0,0,0,8.72,3.27,7.33,7.33,0,0,0-.86,1.58,19,19,0,0,1-7.58-3.2A8.5,8.5,0,0,1,215.36,166.73Z"/><path class="cls-22" d="M223.22,171.58c-.26.59-.47,1.21-.7,1.8a7.06,7.06,0,0,1-5-1.78,6.59,6.59,0,0,1-1.89-3.22A19,19,0,0,0,223.22,171.58Z"/><path class="cls-22" d="M202.51,181.41a9.39,9.39,0,0,0,13.2,7.14c1-.42,1.42,1.19.45,1.6a11,11,0,0,1-15.26-8.3C200.71,180.8,202.32,180.35,202.51,181.41Z"/><path class="cls-1" d="M231.61,135.62q-3.41,1.8-6.72,3.76l-.37-.34a18.64,18.64,0,0,0-30.2,6.47c-2,5.06-2,11.55,1.11,16l-.33.3a.93.93,0,0,0,1.28,1.36,163.72,163.72,0,0,1,17.45-14.34q6-4.31,12.42-8c2.06-1.22,4.14-2.37,6.25-3.49A.93.93,0,0,0,231.61,135.62Z"/><path class="cls-21" d="M225.7,166.82c-.76-2.73-1.53-5.45-2.29-8.18-.16-.58-1.08-.38-.91.2l2.16,7.72-2,.42a.47.47,0,0,0,.2.91l2.51-.52A.46.46,0,0,0,225.7,166.82Z"/><path class="cls-22" d="M221.82,139.2l-25.66,19.72c-.95.73.3,2.12,1.25,1.39l25.66-19.72C224,139.85,222.77,138.47,221.82,139.2Z"/><polygon class="cls-22" points="277.76 230.76 351.41 230.76 348.86 274.81 280.32 274.81 277.76 230.76"/><polygon class="cls-1" points="348.86 274.81 351.41 287.47 277.76 287.47 280.32 274.81 348.86 274.81"/><path class="cls-12" d="M325,236.78v-9.46a10.63,10.63,0,0,0-9.43-10.69A10.45,10.45,0,0,0,304.15,227v9.76a.85.85,0,0,1-.85.85h0a.85.85,0,0,1-.85-.85v-9.41A12.38,12.38,0,0,1,314,214.89,12.16,12.16,0,0,1,326.73,227v9.76a.86.86,0,0,1-.86.85h0A.85.85,0,0,1,325,236.78Z"/><path class="cls-8" d="M319.3,219.45h0a1,1,0,0,1,.26-1.37l3.85-2.6a1,1,0,0,1,1.37.27h0a1,1,0,0,1-.26,1.37l-3.85,2.6A1,1,0,0,1,319.3,219.45Z"/><path class="cls-8" d="M320.55,221.23h0a1,1,0,0,1,.26-1.37l3.85-2.6a1,1,0,0,1,1.37.27h0a1,1,0,0,1-.26,1.37l-3.85,2.6A1,1,0,0,1,320.55,221.23Z"/><path class="cls-8" d="M322.21,223.19h0a1,1,0,0,1,.27-1.38l3.84-2.6a1,1,0,0,1,1.38.27h0a1,1,0,0,1-.27,1.38l-3.85,2.59A1,1,0,0,1,322.21,223.19Z"/><path class="cls-8" d="M323.45,224.85h0a1,1,0,0,1,.27-1.38l3.35-2.26a1,1,0,0,1,1.37.27h0a1,1,0,0,1-.27,1.37l-3.35,2.27A1,1,0,0,1,323.45,224.85Z"/><path class="cls-22" d="M166.42,367.72q-8.58-26.48-17.17-53c-.73-2.27-4.36-1.41-3.62.88q8.58,26.48,17.17,53C163.53,370.87,167.16,370,166.42,367.72Z"/><path class="cls-22" d="M146.74,305.45l-2.4-6.66a2.05,2.05,0,0,0-.82-1.14,1.94,1.94,0,0,0-1.43-.23,1.87,1.87,0,0,0-1.37,2.25l2.4,6.66a2.05,2.05,0,0,0,.82,1.14,1.94,1.94,0,0,0,1.43.23A1.89,1.89,0,0,0,146.74,305.45Z"/><path class="cls-22" d="M129.56,250.27l-6.72-22.35c-.68-2.29-4.31-1.43-3.62.88l6.72,22.35C126.62,253.43,130.25,252.57,129.56,250.27Z"/><path class="cls-8" d="M315.92,218.93h0a1.35,1.35,0,0,0,.13-1.9l-4.15-4.78a1.35,1.35,0,0,0-1.9-.13h0a1.34,1.34,0,0,0-.14,1.9L314,218.8A1.35,1.35,0,0,0,315.92,218.93Z"/><path class="cls-8" d="M312.49,220.69h0a1.35,1.35,0,0,0,.14-1.91L308.48,214a1.36,1.36,0,0,0-1.91-.13h0a1.35,1.35,0,0,0-.13,1.9l4.15,4.78A1.35,1.35,0,0,0,312.49,220.69Z"/><path class="cls-8" d="M309.61,222.67h0a1.36,1.36,0,0,0,.14-1.9L305.59,216a1.35,1.35,0,0,0-1.9-.13h0a1.35,1.35,0,0,0-.13,1.9l4.15,4.78A1.35,1.35,0,0,0,309.61,222.67Z"/><path class="cls-8" d="M307.39,224.42h0a1.34,1.34,0,0,0,.14-1.9l-3.62-4.16a1.35,1.35,0,0,0-1.9-.13h0a1.35,1.35,0,0,0-.13,1.9l3.61,4.16A1.35,1.35,0,0,0,307.39,224.42Z"/><path class="cls-6" d="M136.51,118l4,14.33h0a1.54,1.54,0,0,0,1.46-1.88l-3.53-12.72a1.08,1.08,0,0,0-1.18-.68h0A.78.78,0,0,0,136.51,118Z"/><path class="cls-6" d="M136.35,122.33a1.52,1.52,0,0,0-1.69-1l-1.7.24a2.48,2.48,0,0,0-1.4.58,1,1,0,0,0-.28,1.12l1.69,6.1,3.24-.45,1.06,3.81a1.87,1.87,0,0,0,1.21-.67,1.34,1.34,0,0,0,.24-1.23l-1-3.67Zm-.55,5.14-1.33.19-1-3.66c-.25-.69.1-1.06,1.07-1.11Z"/><path class="cls-6" d="M129.57,122.94l1.85,6.67-1.89.27-1.86-6.7a.66.66,0,0,1,.11-.61.92.92,0,0,1,.68-.34A1.07,1.07,0,0,1,129.57,122.94Z"/><path class="cls-6" d="M126.13,123.4l1.86,6.69-1.91.27-1.86-6.69a.77.77,0,0,1,.72-1h0A1.06,1.06,0,0,1,126.13,123.4Z"/><path class="cls-6" d="M122.68,123.88l1.86,6.7-1.91.27-1.86-6.7a.78.78,0,0,1,.73-1h0A1.06,1.06,0,0,1,122.68,123.88Z"/><polygon class="cls-6" points="122.63 130.85 131.42 129.61 131.02 128.14 122.23 129.38 122.63 130.85"/><path class="cls-6" d="M117.83,120.56l2.93,10.55-1.91.27-2.94-10.57a.71.71,0,0,1,.12-.62,1,1,0,0,1,.79-.35A1.14,1.14,0,0,1,117.83,120.56Z"/><path class="cls-6" d="M108.63,126.35a6,6,0,0,1,5.8.35,4.44,4.44,0,0,1,2,5.63c-1.35,2.84-5.72,3.59-8.6,1.4a4.22,4.22,0,0,1-1.81-3.88,4.45,4.45,0,0,0,1.21,2.59,5.59,5.59,0,0,0,6.89.95,3.45,3.45,0,0,0,1.22-4.57,5.39,5.39,0,0,0-3.91-2.66l-.4,0-.21,0h-.2a6.14,6.14,0,0,0-2,.26Z"/><ellipse class="cls-6" cx="110.96" cy="130.14" rx="2.54" ry="3.05" transform="translate(-38.39 213.45) rotate(-78.7)"/><path class="cls-1" d="M113,131.18l.43-.18a.17.17,0,0,0,.1-.06c0-.06,0-.12-.08-.16l-.61-.24-1.09-.42-1.13-.42,0,0c-.13,0-.18,0-.15.13s.05.13.07.2l.28.72c.08.23.16.47.25.7s.16.43.25.64.08.21.11.31a.13.13,0,0,0,.19.08l.09-.11.34-.46c0-.06.09-.06.17,0l.26.25.59.58.12.11s.08,0,.11,0l.08,0,.42-.33c.06-.05.06-.07,0-.14l-.63-.62-.31-.28c-.08-.07-.08-.1,0-.14l.2-.11Z"/><path class="cls-6" d="M122,133.9c.05.19,0,.31-.25.34a.34.34,0,0,1-.43-.25l-.13-.48-1.12.16.13.48c.06.2,0,.31-.25.34a.32.32,0,0,1-.42-.24l-.37-1.33c-.17-.59.09-.94.76-1l1.13-.16a.32.32,0,0,1,.41.24Zm-1-1-.16-.57-.78.11c-.23,0-.32.14-.26.34l.08.28Z"/><path class="cls-6" d="M122.53,132.42c-.17-.58.09-.92.77-1l.45-.07a1,1,0,0,1,1.26.73l.21.75c.16.59-.09.94-.77,1l-.46.07a1,1,0,0,1-1.25-.73Zm.92-.43c-.22,0-.3.14-.25.34l.21.76a.34.34,0,0,0,.42.25l.45-.07c.23,0,.32-.14.27-.34l-.22-.77c0-.19-.19-.26-.42-.23Z"/><path class="cls-6" d="M128.12,131c0,.19,0,.3-.25.34l-.9.13c-.23,0-.33.11-.29.24s.17.17.4.14l.22,0c.68-.09,1.08.12,1.22.63s-.12.81-.79.91l-.92.13c-.21,0-.35,0-.4-.22a.25.25,0,0,1,.24-.35l.91-.13c.23,0,.32-.11.29-.24s-.16-.18-.39-.15l-.22,0c-.68.1-1.09-.11-1.23-.64s.12-.81.79-.9l.91-.13A.32.32,0,0,1,128.12,131Z"/><path class="cls-6" d="M132.16,132.47c.05.19,0,.31-.25.34a.34.34,0,0,1-.43-.25l-.13-.48-1.12.16.13.48c.06.2,0,.31-.26.34a.32.32,0,0,1-.41-.24l-.37-1.33c-.17-.59.09-.94.76-1l1.13-.16a.32.32,0,0,1,.41.24Zm-1-1-.16-.57-.78.1c-.23,0-.32.15-.26.35l.08.28Z"/><path class="cls-6" d="M133.48,132.58a.32.32,0,0,1-.41-.24l-.54-1.93c-.05-.19,0-.3.26-.33l1.13-.16a1,1,0,0,1,1.27.74l.37,1.33c.05.2,0,.31-.26.34s-.37-.05-.42-.25l-.37-1.34a.34.34,0,0,0-.43-.24l-.79.11.45,1.63C133.8,132.43,133.71,132.55,133.48,132.58Z"/></g></svg>