<svg id="Layer_1" data-name="Layer 1" xmlns="http://www.w3.org/2000/svg" viewBox="0 0 566.93 566.93"><defs><style>.cls-1{fill:none;stroke:#000;stroke-miterlimit:10;stroke-width:10px;}</style></defs><path class="cls-1" d="M487.3,307q-11.18,33.51-22.35,67c-1.81,5.47-4.78,9.67-11,11-4.58-29.18-21.52-45.67-51.05-49.47,3.72-14.86,7.41-29.58,11.14-44.47h37.63c6.37,0,12.76.39,19.09-.1,8.36-.64,13.69,2.78,16.57,10.45Z"/><path class="cls-1" d="M264.47,385.3c-2.66-7.62-4.34-14.95-7.65-21.46-10.32-20.29-33.68-31.31-55.86-27.07a52.72,52.72,0,0,0-42.7,45.55c-.28,2.38-1.07,3.34-3.43,3.12-1.18-.12-2.38,0-3.58,0-12-.09-17.7-7.21-15.07-19q4.95-22.12,9.89-44.25c.26-1.15.4-2.33.68-4h-4.44q-23.91,0-47.8,0c-9,0-15.05-5.43-15.15-13.36s6.15-13.73,15.22-13.74c18.32,0,36.64-.06,55,0,2.55,0,3.66-.59,4.19-3.3,1.62-8.31,3.61-16.55,5.58-25.34-1.72-.07-3.09-.19-4.47-.19-12.87,0-25.75.1-38.63-.05-10.16-.11-16.59-8.5-13.78-17.64,1.77-5.74,6.7-9.38,13.27-9.42,15-.08,30,0,45,0h4.63c2.13-9.5,4.21-18.79,6.41-28.63-1.6-.1-3-.24-4.32-.26-6.77-.11-13.56.12-20.29-.37-6.47-.47-11-5.57-11.72-12.11A13.32,13.32,0,0,1,144.56,180a24,24,0,0,1,6.67-.84c7.56-.09,15.14-.22,22.7,0,3.26.12,4.44-1.16,4.88-4.07a74.51,74.51,0,0,1,1.62-7.37c1.71-6.65,6.51-10.6,13.35-11,1.19-.08,2.39-.05,3.59-.05H402.5c.79,0,1.59,0,2.39,0,11.14.23,17,7.75,14.42,18.59-3.21,13.4-6.53,26.78-9.78,40.18q-14.53,60.1-29,120.22a10.53,10.53,0,0,1-5.6,7.4c-15,8.59-23.67,21.66-26.16,38.75-.32,2.18-.46,3.7-3.34,3.69-26.82-.1-53.64-.07-80.46-.08C264.58,385.38,264.19,385.25,264.47,385.3Z"/><path class="cls-1" d="M401.33,363.1c14.22.51,25.69,12.35,25.21,26-.5,14.19-12.37,25.67-26,25.18-14.27-.51-25.55-12.19-25.13-26C375.81,374.07,387.62,362.61,401.33,363.1Z"/><path class="cls-1" d="M185,387.75c.8-14.17,12.52-25.27,26-24.64,14.31.67,25.67,12.52,25.06,26.14-.64,14.25-12.57,25.67-26.16,25C195.4,413.59,184.25,401.72,185,387.75Z"/><path class="cls-1" d="M453.62,217.74c7.44,0,14.47-.19,21.47,0,6.31.22,11.92,5.07,12.21,11.53.51,11.34.14,22.72.14,34.3H442.17Z"/></svg>