<svg id="Layer_1" data-name="Layer 1" xmlns="http://www.w3.org/2000/svg" viewBox="0 0 566.93 566.93"><path d="M465.09,202.73c-1.59,3.46-4.56,4-8,4-18.81,0-37.61,0-56.42,0h-4.44c2.2,22.7,4.36,44.87,6.55,67.42,1.76,0,3.28,0,4.79,0,4.73,0,9.47-.09,14.19.13,3.32.15,5.21,2.2,5.14,5.15-.07,3.27-2,4.94-5.09,5.25-1.64.16-3.31.11-5,.12h-13c.4,4.5.72,8.48,1.1,12.45q3.86,39.89,7.7,79.77c.47,4.93-1.49,7.08-6.41,7.13-6.15.07-12.31.17-18.45-.05-3-.1-4.25.77-4.94,3.85a40.18,40.18,0,0,1-78.37.08c-.66-3-1.77-4-4.86-3.93q-38.49.19-77,0c-3.37,0-4.8.74-5.58,4.34C213.32,405.82,196.82,419,179,419.23a40.28,40.28,0,0,1-40.3-31.73c-.55-2.49-1.41-3.54-4.14-3.45-6.38.21-12.77.12-19.16.05-4.54-.05-6.13-1.53-6.64-6.06-2.07-18.44-4.28-36.87-6.11-55.34-1.13-11.42-1.35-22.79,1.8-34.12,6.88-24.78,30.11-45.88,55.38-48.85,9.81-1.16,19.81-.79,29.72-1.12,1.35-.05,2.7-.14,4.28-.22-2.26-25.66-4.44-50.85-6.71-76-.61-6.73,1-8.66,7.64-8.66H298.32a19.87,19.87,0,0,1,3.54.12,4.9,4.9,0,0,1,4.41,4.79,4.77,4.77,0,0,1-3.72,5.32,17.34,17.34,0,0,1-4.56.39q-47.73,0-95.45,0H198c4.43,50.92,8.82,101.39,13.22,152h185c-.95-9.72-2-19.12-2.71-28.53-.2-2.48-1.05-3.17-3.43-3.14-9.81.1-19.63.06-29.45,0a16,16,0,0,1-4.21-.4,4.69,4.69,0,0,1-3.63-5,4.64,4.64,0,0,1,3.82-4.87,19.81,19.81,0,0,1,4.23-.32c9.1,0,18.21,0,27.32,0,1.23,0,2.46-.13,3.94-.21-2.19-22.6-4.35-44.78-6.52-67.2H332.68a28,28,0,0,1-3.89-.24,5.15,5.15,0,0,1,0-10.19,26.41,26.41,0,0,1,3.88-.21H384.5c-1-10.78-2-21.08-3-31.67h-4.15q-26.61,0-53.22,0c-4.9,0-7.55-2.58-6.7-6.46.81-3.66,3.6-4.2,6.8-4.2,20.11,0,40.22,0,60.32,0,5.12,0,6.8,1.49,7.3,6.58,1.05,10.71,2.15,21.41,3,32.13.23,3,1.29,3.68,4.1,3.66,19.52-.11,39,0,58.55-.09,3.33,0,6.07.68,7.65,3.9ZM161.31,293.19c-6.84.71-12.16,5.5-16.86,10.5-4.54,4.82-9,9.69-13.68,14.39a29.68,29.68,0,0,1-14.69,8.14c-1.59.37-2.5.86-2.28,2.78,1.67,14.67,3.27,29.35,4.92,44.24h18.8c5.63-22.67,19.72-36.19,43.76-34.57,20.54,1.38,32.57,14.43,37,34.63,1.16.06,2.31.16,3.46.16,26,0,52.05,0,78.07.09,3,0,4-1,4.63-3.76,4-17.57,19.29-30.62,36.57-31.46A40.82,40.82,0,0,1,382.07,366c.84,2.41.86,6,2.5,7,2.12,1.26,5.48.46,8.31.5s5.62,0,8.79,0c-.75-8.08-1.46-15.7-2.19-23.32-.59-6.24-1.4-12.46-1.74-18.71-.17-3.12-1-4.22-4.35-4.18-16.56.17-33.12.08-49.68.08H209.57c-7,0-8-.89-8.67-7.68-.72-7.89-1.38-15.78-2.08-23.67-.12-1.27-.36-2.53-.67-4.66C185.75,291.89,173.46,291.93,161.31,293.19Zm-33.45,13c4.39-4.62,8.53-9.52,13.18-13.87a38.82,38.82,0,0,1,21-10.25,13.11,13.11,0,0,0,1.72-.43c.31-.1.61-.27,1.2-.53q-1.34-15.27-2.66-30.59c-26.56,1.58-54.86,30.85-49.18,65.45C119.51,314.58,123.76,310.49,127.86,306.19ZM343.53,408.58a29.83,29.83,0,1,0-29.64-29.9A30,30,0,0,0,343.53,408.58ZM180,349c-15.08-1.3-29.85,11-31.53,25.54a30.08,30.08,0,0,0,27,33.9c16.15,1.39,31.48-11,32.2-28.16C209.09,364.7,196.48,350.45,180,349Zm14.7-99.55H173c.88,10.45,1.76,20.85,2.66,31.47h21.8C196.53,270.31,195.61,260,194.68,249.48Z"/><path d="M427.66,238.63c-4,0-8-.09-12,0s-6.15,2-6.11,5.32,2.07,5.17,5.86,5.23q12.38.2,24.76,0c3.67-.06,5.81-2.26,5.78-5.33s-2.15-5.08-5.89-5.2C435.92,238.53,431.79,238.63,427.66,238.63Z"/><path d="M324.29,378.6a19.43,19.43,0,1,0,19.51-19.24A19.42,19.42,0,0,0,324.29,378.6Zm10.65.32a8.78,8.78,0,0,1,17.56-.31,8.78,8.78,0,1,1-17.56.31Z"/><path d="M158.49,378.56a19.5,19.5,0,1,0,19.62-19.21A19.6,19.6,0,0,0,158.49,378.56Zm10.65.34a8.85,8.85,0,0,1,17.69-.27,8.85,8.85,0,0,1-17.69.27Z"/></svg>