<svg id="Layer_1" data-name="Layer 1" xmlns="http://www.w3.org/2000/svg" viewBox="0 0 566.93 566.93"><path d="M123.69,342.1c20.69,0,41.38-.09,62.07,0,3.85,0,7.38-.45,10.7-2.48a17.94,17.94,0,0,1,4.59-1.9c2.1-.57,2.57-1.76,2.56-3.84q-.11-35.88-.05-71.75c0-10.16.44-10.6,10.47-10.6H355.34c6.54,0,8,1.45,8,8.11q0,9,0,18c7.72,0,15.24.73,22.56-.19,8.87-1.11,15.42-10.4,14.64-19-.91-9.89-8-17-17.44-17.54-1.46-.08-2.91-.08-4.37-.08q-54.9,0-109.8,0c-16.61,0-30.4-9.08-36-23.53-9.65-24.76,7.88-50.48,34.88-51.1,4.88-.11,9.78-.2,14.66,0,2.83.14,4.48-.92,6.11-3.13q13.13-17.83,26.56-35.43c1.21-1.59,3-2.72,4.56-4.07H439.44c2.93,1.69,3.81,4.23,3.8,7.55-.09,26.83-.05,53.67-.05,80.5,0,6.16-1.63,7.84-7.71,7.84q-56.16,0-112.32,0a9.28,9.28,0,0,1-8.18-4.08q-13.5-18.31-27.32-36.42a5.28,5.28,0,0,0-3.39-2.12c-6.54-.08-13.11-.19-19.62.35-10.36.86-17.66,6.62-21.62,16s-2.67,18.36,3.52,26.47c5.83,7.63,13.9,10.43,23.24,10.42q54.91,0,109.83,0c6.14,0,12,.93,17.31,4.22,9.32,5.79,14.22,14.33,14.19,25.13s-5,19.31-14.35,25.05c-5.23,3.21-11,4.16-17,4.17H363.47v72.55c1.23-.62,2.24-1.09,3.22-1.61,12.84-6.82,25.51-14,38.57-20.37,17.84-8.71,38,3.84,37.82,23.4C443,373,437.69,380.32,429,385.5q-44,26.31-87.93,52.77a33.89,33.89,0,0,1-18,5q-99.69-.09-199.37,0V432.58h63.68V352.71H123.69Zm74.53,90.46h3.67q60.51,0,121,0a24.37,24.37,0,0,0,13-3.62q43.65-26.28,87.35-52.45a26.22,26.22,0,0,0,3.83-2.67c4.7-4.14,6.42-9.32,4.86-15.42a14.79,14.79,0,0,0-12.36-10.85,19.09,19.09,0,0,0-12,2.41c-23.63,12.63-47.24,25.27-70.95,37.73a19.41,19.41,0,0,1-8.54,2.17c-17.35.2-34.72.1-52.08.1a26.81,26.81,0,0,1-3.11-.07c-3.36-.38-5.38-2.45-5.34-5.38s2.12-4.92,5.49-5.17c.93-.07,1.87,0,2.81,0h43c4.3,0,8.31-.84,11.34-4.16C334,371,335.12,366.24,333,361a12.65,12.65,0,0,0-12.41-8.31q-24.63-.11-49.27,0a20.65,20.65,0,0,1-9.55-2.19c-20-9.84-40.29-10.19-60.77-1.26-2.2,1-2.8,2.13-2.79,4.41.07,25.16,0,50.31,0,75.47ZM304.7,262.35c0,8.36,0,16.55,0,24.73,0,5.17-1.8,7-6.91,7-9.15,0-18.3,0-27.45,0-6.81,0-8.16-1.36-8.16-8.23V262.42H214.34v71.09c1.06-.07,2-.06,2.88-.21,17.51-2.88,34.11-.05,49.94,7.84a10.46,10.46,0,0,0,4.48.88c16.54.07,33.08-.13,49.61.13,9.51.15,16.52,4.89,20.89,13.39,2.57,5,3,10.3,1.8,16.3a46.1,46.1,0,0,1,5.08-2.65c3-1.09,3.76-2.95,3.75-6.12-.14-32.34-.09-64.69-.09-97v-3.69Zm127.75-127.9c-.82,0-1.33-.12-1.83-.12q-52.58,0-105.14.09a5.49,5.49,0,0,0-3.67,2.12c-6.84,8.9-13.53,17.92-20.26,26.9-.58.78-1.11,1.59-2,2.81,3.47,0,6.27-.11,9.07,0,1.84.1,2.7-.63,3.54-2.24a15.66,15.66,0,0,1,18.87-7.53,15.92,15.92,0,1,1-19,22.76c-.54-.95-1.56-2.19-2.45-2.26-3.15-.28-6.34-.11-10.07-.11.91,1.33,1.45,2.17,2.05,3,6.67,8.9,13.39,17.77,20,26.72a5.06,5.06,0,0,0,4.63,2.35q51.48-.09,103,0c1.08,0,2.16-.13,3.26-.2ZM272.94,283.21h21V262.37h-21Zm58.38-111.67a5.49,5.49,0,0,0-5.2-5.2,5.29,5.29,0,0,0-5.29,5.35,5.13,5.13,0,0,0,5.44,5.13A5.31,5.31,0,0,0,331.32,171.54Z"/><path d="M160.85,390a15.79,15.79,0,0,1,16,15.7,16,16,0,0,1-15.93,16.17A16.19,16.19,0,0,1,145,406,16,16,0,0,1,160.85,390Zm.25,10.68a5.3,5.3,0,0,0-5.43,5.22,5.5,5.5,0,0,0,5.14,5.27,5.28,5.28,0,0,0,5.35-5A5.14,5.14,0,0,0,161.1,400.71Z"/><path d="M389.81,192.89h-10.3V182.31c5.36,0,10.74.08,16.1-.05a24.6,24.6,0,0,0,4.77-1.06,30.65,30.65,0,0,0-3.7-2.88c-2.72-1.51-5.52-2.89-8.36-4.18-5.55-2.54-9.38-6.28-8.86-12.87.49-6.28,4.48-9.52,10.39-11,.09-1.69.17-3.33.27-5.17h10.34c.1,1.52.2,3.12.33,5.14H411.1V161H390.36l-.5,1a12.59,12.59,0,0,0,2.32,2.08c3.86,2,7.8,3.89,11.69,5.87,4.77,2.42,7.65,6.25,7.28,11.68s-3.45,9.16-8.84,10.83a3.36,3.36,0,0,0-1.61,2.09,13.57,13.57,0,0,0-.06,3.36H390.17C390.06,196.42,390,194.91,389.81,192.89Z"/></svg>